<svg height='300px' width='300px'  fill="#000000" xmlns="http://www.w3.org/2000/svg" xmlns:xlink="http://www.w3.org/1999/xlink" version="1.1" x="0px" y="0px" viewBox="0 0 50 50" style="enable-background:new 0 0 50 50;" xml:space="preserve"><g><circle cx="24.7" cy="25" r="2.8"></circle><path d="M25,17.6c-4.8,0-9.4,2.5-13.5,7.4c4.1,4.8,8.7,7.3,13.5,7.3s9.4-2.5,13.5-7.4C34.4,20.2,29.8,17.6,25,17.6z M24.7,29.8   c-2.6,0-4.8-2.1-4.8-4.8c0-2.6,2.1-4.8,4.8-4.8c2.6,0,4.8,2.1,4.8,4.8C29.5,27.6,27.4,29.8,24.7,29.8z"></path><path d="M47.5,1.9c0-0.6-0.5-1-1.1-0.9h-0.1c-0.3-0.1-0.7,0-0.9,0.3c-5.4,5.4-14.2,5.4-19.6,0c-0.4-0.4-1.1-0.4-1.5,0   c-5.5,5.5-14.5,5.5-20.1,0C4,1.1,3.7,1,3.5,1c-0.5,0-1,0.4-1,0.9c-2.1,16.7,7.2,40.8,22.2,47C24.8,49,25,49,25.1,49s0.3,0,0.4-0.1   C40.5,42.7,49.6,18.5,47.5,1.9z M40.6,25.6c-4.6,5.7-10,8.8-15.6,8.8s-11-3-15.5-8.7c-0.3-0.4-0.3-0.9,0-1.3   c4.6-5.7,10-8.7,15.6-8.7s11,3,15.5,8.7C40.9,24.7,40.9,25.2,40.6,25.6z"></path></g></svg>